# Blender v2.80 (sub 75) OBJ File: 'cilpbord.obj'
# www.blender.org
mtllib cilpbord.mtl
o paper
v -8.109375 0.640623 15.000000
v 8.218750 0.703123 15.062500
v -8.046875 0.640626 -6.156250
v 8.281250 0.703126 -6.093750
v 8.234375 0.218748 15.062500
v -8.093750 0.156248 15.000000
v 8.296875 0.218751 -6.093750
v -8.031250 0.187501 -6.156250
vt 0.000000 0.000000
vt 0.999562 0.000000
vt -0.000000 0.995895
vt 0.999562 0.995895
vt 1.000000 0.000000
vt 0.000438 0.000000
vt 1.000000 0.995895
vt 0.000438 0.995895
vn -0.0038 1.0000 -0.0000
vn 0.6944 0.7196 0.0021
vn 0.6941 0.7199 0.0021
vn 0.0038 -1.0000 0.0000
vn -0.6940 -0.7200 -0.0025
vn 0.0030 -1.0000 -0.0006
vn -0.6942 -0.7198 -0.0031
vn -0.9994 -0.0335 -0.0030
vn -0.9995 -0.0322 -0.0030
vn 0.9995 0.0322 0.0030
vn 0.0038 0.0001 -1.0000
vn -0.0038 -0.0001 1.0000
usemtl paper
s 1
f 1/1/1 2/2/2 3/3/1
f 2/2/2 4/4/3 3/3/1
f 5/5/4 6/6/5 7/7/6
f 6/6/5 8/8/7 7/7/6
f 3/3/8 6/6/5 1/1/9
f 3/3/8 8/8/7 6/6/5
f 7/7/10 2/2/2 5/5/10
f 7/7/10 4/4/3 2/2/2
f 3/3/11 7/7/11 8/8/11
f 3/3/11 4/4/11 7/7/11
f 2/2/12 6/6/12 5/5/12
f 2/2/12 1/1/12 6/6/12
o cilpbord
v -9.281250 0.499997 16.218750
v 9.437500 0.468747 16.281250
v -9.218750 0.500001 -7.296875
v 9.500000 0.484376 -7.359375
v 9.453125 -0.000003 16.281250
v -9.265625 -0.000003 16.218750
v 9.515625 0.015626 -7.359375
v -9.203125 0.000001 -7.296875
v -3.718750 1.343751 -7.328125
v -3.718750 1.828126 -6.515625
v 4.359375 1.406251 -7.265625
v 4.359375 1.890626 -6.453125
v -3.718750 1.234376 -5.734375
v 4.359375 1.296876 -5.671875
v -3.718750 0.515626 -4.781250
v 4.359375 0.578126 -4.718750
v -3.718750 0.484376 -7.125000
v 4.359375 0.484376 -7.062500
v -3.718750 1.015626 -6.593750
v 4.359375 1.078126 -6.531250
v -3.765625 3.203126 -7.890625
v -3.828125 0.593751 -4.859375
v 4.390625 0.656251 -4.796875
v 4.328125 3.156251 -7.843750
vt 0.000000 0.000000
vt 0.999562 0.000000
vt 0.000000 0.902299
vt 0.999562 0.902299
vt 1.000000 0.000000
vt 0.000438 0.000000
vt 1.000000 0.902299
vt 0.000438 0.902299
vt 0.014301 0.954023
vt 0.014301 0.997179
vt 0.545802 0.954023
vt 0.545802 0.997179
vt 0.014301 0.980695
vt 0.545802 0.980695
vt 0.014301 0.927351
vt 0.545802 0.927351
vt 0.014301 0.910867
vt 0.545802 0.910867
vt 0.014301 0.954023
vt 0.545802 0.954023
vt 0.564993 0.999408
vt 0.564993 0.901765
vt 0.871495 0.901765
vt 0.871495 0.999408
vn 0.0017 1.0000 0.0000
vn 0.6960 0.7181 0.0021
vn 0.0012 1.0000 0.0004
vn 0.6956 0.7184 0.0023
vn 0.0000 -1.0000 -0.0007
vn -0.6957 -0.7183 -0.0021
vn 0.0005 -1.0000 -0.0003
vn -0.6957 -0.7184 -0.0018
vn -0.9995 -0.0312 -0.0027
vn 0.9994 0.0333 0.0027
vn -0.0033 -0.0001 -1.0000
vn -0.0033 -0.0001 1.0000
vn 0.0056 0.1658 -0.9862
vn -0.0064 0.9864 -0.1644
vn 0.0015 0.6006 -0.7996
vn -0.0096 0.9617 0.2739
vn -0.0108 0.7970 0.6039
vn -0.0108 0.7978 0.6029
vn -0.0108 0.7984 0.6021
vn 0.0076 -0.9999 0.0133
vn 0.0062 -0.9244 -0.3814
vn 0.0037 -0.9996 0.0266
vn 0.0069 -0.6032 -0.7975
vn -1.0000 0.0000 0.0000
vn 1.0000 0.0000 0.0000
vn -0.0050 0.7656 0.6433
vn -0.0107 0.7579 0.6522
vn 0.0008 0.7731 0.6343
usemtl clipbord
s 1
f 9/9/13 10/10/14 11/11/15
f 10/10/14 12/12/16 11/11/15
f 13/13/17 14/14/18 15/15/19
f 14/14/18 16/16/20 15/15/19
f 11/11/21 14/14/18 9/9/21
f 11/11/21 16/16/20 14/14/18
f 15/15/22 10/10/14 13/13/22
f 15/15/22 12/12/16 10/10/14
f 11/11/23 15/15/23 16/16/23
f 11/11/23 12/12/23 15/15/23
f 10/10/24 14/14/24 13/13/24
f 10/10/24 9/9/24 14/14/24
f 17/17/25 18/18/26 19/19/27
f 18/18/26 20/20/28 19/19/27
f 18/18/26 21/21/29 20/20/28
f 21/21/29 22/22/30 20/20/28
f 21/21/29 23/23/31 22/22/30
f 23/23/31 24/24/31 22/22/30
f 23/23/32 25/25/33 24/24/34
f 25/25/33 26/26/35 24/24/34
f 25/25/33 17/17/25 26/26/35
f 17/17/25 19/19/27 26/26/35
f 27/27/36 18/18/36 17/17/36
f 27/27/36 21/21/36 18/18/36
f 27/27/36 23/23/36 21/21/36
f 27/27/36 25/25/36 23/23/36
f 27/27/36 17/17/36 25/25/36
f 28/28/37 19/19/37 20/20/37
f 28/28/37 20/20/37 22/22/37
f 28/28/37 22/22/37 24/24/37
f 28/28/37 24/24/37 26/26/37
f 28/28/37 26/26/37 19/19/37
f 29/29/38 30/30/39 31/31/38
f 31/31/38 32/32/40 29/29/38
