# Blender v2.80 (sub 75) OBJ File: 'torch.obj'
# www.blender.org
mtllib torch.mtl
o Group
v -3.177859 6.332906 -0.055584
v -3.177859 5.529051 1.823236
v 2.010851 6.094727 -0.055584
v 1.895546 5.320645 1.823236
v -3.523772 3.653394 2.596868
v 1.895546 3.444987 2.596868
v -3.639077 1.718190 1.823235
v 1.780241 1.480012 1.823235
v -3.639077 0.914337 -0.055585
v 1.780241 0.705930 -0.055585
v -3.639077 1.718190 -1.934405
v 1.780241 1.480012 -1.934405
v -3.293163 3.653394 -2.708035
v 1.895546 3.444988 -2.708036
v -3.177859 5.529052 -1.934404
v 1.895546 5.320646 -1.934404
v 6.968951 5.886321 -0.055584
v 6.968951 5.112238 1.823236
v 6.853646 3.147264 2.596868
v 6.853646 1.271605 1.823235
v 6.738341 0.467752 -0.055585
v 6.853646 1.271605 -1.934405
v 6.853646 3.147264 -2.708036
v 6.968951 5.112239 -1.934404
v 12.157660 5.677914 -0.055584
v 12.157660 4.874061 1.823236
v 12.042355 2.938857 2.596868
v 11.927051 1.033426 1.823235
v 11.927051 0.259345 -0.055585
v 11.927051 1.033426 -1.934405
v 12.042355 2.938858 -2.708036
v 12.157660 4.874062 -1.934404
v 17.346369 5.439736 -0.055584
v 17.231064 4.665654 1.823236
v 17.115761 2.700679 2.596866
v 17.115761 0.825020 1.823235
v 17.000456 0.110483 -0.055585
v 17.115761 0.825020 -1.934405
v 17.115761 2.700680 -2.708036
v 17.231064 4.665655 -1.934404
v -3.523772 3.653394 -0.055584
v 17.115761 2.700679 -0.055585
v -12.056317 7.702434 -0.055583
v -12.056316 6.660400 2.431090
v -9.865528 7.583345 -0.055583
v -9.865528 6.541312 2.431090
v -12.056316 4.099978 3.453389
v -9.980833 4.010662 3.453389
v -12.056316 1.539556 2.431089
v -10.096137 1.450239 2.431089
v -12.056316 0.497523 -0.055584
v -10.211442 0.408206 -0.055584
v -12.056316 1.539556 -2.542258
v -10.096137 1.450239 -2.542258
v -12.056317 4.099979 -3.564556
v -9.980833 4.010663 -3.564556
v -12.056317 6.660401 -2.542257
v -9.865528 6.541313 -2.542257
v -7.674740 7.494028 -0.055584
v -7.790044 6.451994 2.431090
v -7.905349 3.921345 3.453389
v -7.905349 1.360922 2.431089
v -8.020654 0.318889 -0.055585
v -7.905349 1.360922 -2.542258
v -7.905349 3.921345 -3.564556
v -7.790045 6.451995 -2.542257
v -5.368647 7.404711 -0.055584
v -5.483951 6.362678 2.431090
v -5.599256 3.832027 3.453389
v -5.714561 1.271605 2.431089
v -5.714561 0.229572 -0.055585
v -5.714561 1.271605 -2.542258
v -5.599256 3.832028 -3.564556
v -5.368647 6.362679 -2.542257
v 2.010851 6.154272 -0.055584
v 1.895546 5.350418 1.823236
v 1.895546 3.444987 2.596868
v 1.780241 1.509784 1.823235
v 1.780241 0.735703 -0.055585
v 1.780241 1.420467 -1.934405
v 1.895546 3.444988 -2.708036
v 1.895546 5.350419 -1.934404
v -11.133879 4.099979 -0.055583
v 1.895546 3.415215 -0.055584
v -3.523773 6.809263 0.607529
v -2.140117 6.749719 0.607529
v -3.293163 7.374938 0.607529
v -2.140117 7.315394 0.607529
v -2.140117 6.749719 -0.718697
v -3.523773 6.809263 -0.718697
v -2.140117 7.315394 -0.718697
v -3.293163 7.374938 -0.718697
vt 0.648438 0.992188
vt 0.648438 0.742188
vt 0.585938 0.929688
vt 0.648438 0.992188
vt 0.648438 0.742188
vt 0.648438 0.742188
vt 0.585938 0.929688
vt 0.648438 0.992188
vt 0.648438 0.742188
vt 0.648438 0.742188
vt 0.585938 0.929688
vt 0.648438 0.992188
vt 0.648438 0.742188
vt 0.648438 0.742188
vt 0.585938 0.929688
vt 0.648438 0.992188
vt 0.648438 0.742188
vt 0.648438 0.742188
vt 0.585938 0.929688
vt 0.648438 0.992188
vt 0.648438 0.742188
vt 0.648438 0.742188
vt 0.585938 0.929688
vt 0.648438 0.992188
vt 0.648438 0.742188
vt 0.648438 0.742188
vt 0.585938 0.929688
vt 0.648438 0.992188
vt 0.648438 0.742188
vt 0.648438 0.742188
vt 0.585938 0.929688
vt 0.648438 0.742188
vt 0.015625 0.968750
vt 0.015625 0.890625
vt 0.195312 0.968750
vt 0.195312 0.890625
vt 0.015625 0.695312
vt 0.195312 0.695312
vt 0.015625 0.500000
vt 0.195312 0.500000
vt 0.015625 0.421875
vt 0.195312 0.421875
vt 0.015625 0.500000
vt 0.195312 0.500000
vt 0.015625 0.695312
vt 0.195312 0.695312
vt 0.015625 0.890625
vt 0.195312 0.890625
vt 0.375000 0.968750
vt 0.375000 0.890625
vt 0.375000 0.695312
vt 0.375000 0.500000
vt 0.375000 0.421875
vt 0.375000 0.500000
vt 0.375000 0.695312
vt 0.375000 0.890625
vt 0.562500 0.968750
vt 0.562500 0.890625
vt 0.562500 0.695312
vt 0.562500 0.500000
vt 0.562500 0.421875
vt 0.562500 0.500000
vt 0.562500 0.695312
vt 0.562500 0.890625
vt 0.843750 0.796875
vt 0.929688 0.921875
vt 0.835938 0.960938
vt 0.992188 0.796875
vt 0.937500 0.695312
vt 0.835938 0.664062
vt 0.750000 0.703125
vt 0.687500 0.804688
vt 0.742188 0.921875
vt 0.843750 0.796875
vt 0.835938 0.960938
vt 0.929688 0.921875
vt 0.992188 0.796875
vt 0.937500 0.695312
vt 0.835938 0.664062
vt 0.750000 0.703125
vt 0.687500 0.804688
vt 0.742188 0.921875
vt 0.015625 0.414062
vt 0.015625 0.359375
vt 0.109375 0.414062
vt 0.109375 0.359375
vt 0.015625 0.218750
vt 0.109375 0.218750
vt 0.015625 0.070312
vt 0.109375 0.070312
vt 0.015625 0.007812
vt 0.109375 0.007812
vt 0.015625 0.070312
vt 0.109375 0.070312
vt 0.015625 0.218750
vt 0.109375 0.218750
vt 0.015625 0.359375
vt 0.109375 0.359375
vt 0.210938 0.414062
vt 0.210938 0.359375
vt 0.210938 0.218750
vt 0.210938 0.070312
vt 0.210938 0.007812
vt 0.210938 0.070312
vt 0.210938 0.218750
vt 0.210938 0.359375
vt 0.328125 0.406250
vt 0.328125 0.359375
vt 0.328125 0.210938
vt 0.328125 0.070312
vt 0.328125 0.007812
vt 0.328125 0.070312
vt 0.328125 0.210938
vt 0.328125 0.359375
vt 0.546875 0.375000
vt 0.546875 0.328125
vt 0.546875 0.218750
vt 0.546875 0.109375
vt 0.546875 0.062500
vt 0.546875 0.101562
vt 0.546875 0.218750
vt 0.546875 0.328125
vt 0.828125 0.460938
vt 0.921875 0.554688
vt 0.828125 0.593750
vt 0.960938 0.460938
vt 0.921875 0.375000
vt 0.828125 0.335938
vt 0.734375 0.375000
vt 0.695312 0.460938
vt 0.734375 0.554688
vt 0.843750 0.796875
vt 0.835938 0.968750
vt 0.929688 0.921875
vt 0.992188 0.796875
vt 0.945312 0.695312
vt 0.835938 0.664062
vt 0.742188 0.695312
vt 0.687500 0.812500
vt 0.742188 0.921875
vt 0.765625 0.023438
vt 0.968750 0.023438
vt 0.773438 0.023438
vt 0.976562 0.023438
vt 0.968750 0.218750
vt 0.765625 0.218750
vt 0.968750 0.218750
vt 0.773438 0.218750
vn -0.5215 0.8464 -0.1075
vn -0.5207 0.7014 0.4868
vn 0.0430 0.9991 0.0022
vn 0.0290 0.7061 0.7075
vn -0.3228 0.1905 0.9271
vn 0.0000 0.0048 1.0000
vn 0.0057 0.1389 0.9903
vn -0.0253 -0.5918 0.8057
vn -0.0301 -0.7011 0.7124
vn -0.0399 -0.9898 0.1364
vn -0.0430 -0.9991 0.0002
vn -0.0330 -0.7918 -0.6099
vn -0.0305 -0.6993 -0.7141
vn -0.3668 -0.7038 -0.6084
vn -0.5587 -0.0323 -0.8287
vn 0.0002 0.0055 -1.0000
vn -0.5313 0.5290 -0.6617
vn 0.0310 0.7027 -0.7108
vn 0.0419 0.9991 -0.0019
vn 0.0308 0.7012 0.7123
vn 0.0001 -0.0048 1.0000
vn -0.0313 -0.7022 0.7113
vn -0.0440 -0.9990 0.0001
vn -0.0313 -0.7011 -0.7124
vn -0.0006 -0.0046 -1.0000
vn 0.0303 0.7012 -0.7123
vn 0.0432 0.9991 -0.0002
vn 0.0306 0.6985 0.7149
vn -0.0006 -0.0045 1.0000
vn -0.0303 -0.7034 0.7102
vn -0.0376 -0.9993 -0.0068
vn -0.0283 -0.7083 -0.7053
vn 0.0002 -0.0047 -1.0000
vn 0.0301 0.6988 -0.7147
vn 0.0438 0.9891 0.1405
vn 0.0252 0.5946 0.8036
vn -0.0056 -0.1392 0.9903
vn -0.0286 -0.8027 0.5957
vn 0.3024 -0.9465 -0.1124
vn 0.3013 -0.9430 -0.1415
vn -0.0253 -0.6075 -0.7939
vn 0.0052 0.1263 -0.9920
vn 0.0341 0.7906 -0.6113
vn -0.9945 0.1026 -0.0215
vn -0.6802 0.3489 0.6447
vn -0.9987 0.0508 -0.0090
vn -0.9927 0.1206 0.0000
vn -0.9991 0.0421 0.0000
vn -0.9952 0.0923 -0.0340
vn -0.8920 -0.0823 -0.4445
vn 0.9989 -0.0469 -0.0000
vn 0.9965 -0.0839 -0.0000
vn 0.9974 -0.0712 0.0132
vn 0.9996 -0.0295 -0.0000
vn 0.9995 -0.0223 -0.0223
vn 0.6802 -0.6854 -0.2599
vn 0.8762 -0.4551 0.1588
vn 0.9995 -0.0222 0.0222
vn 0.9974 -0.0713 -0.0133
vn 0.0538 0.9890 -0.1381
vn 0.0431 0.7922 0.6088
vn 0.0478 0.9989 -0.0002
vn 0.0325 0.7012 0.7123
vn 0.0072 0.1330 0.9911
vn -0.0000 0.0019 1.0000
vn -0.0268 -0.5951 0.8032
vn -0.0310 -0.7001 0.7133
vn -0.0470 -0.9892 0.1388
vn -0.0443 -0.9990 0.0003
vn -0.0370 -0.7920 -0.6094
vn -0.0299 -0.7000 -0.7135
vn -0.0060 -0.1317 -0.9913
vn 0.0006 0.0014 -1.0000
vn 0.0309 0.5961 -0.8023
vn 0.0348 0.7017 -0.7116
vn 0.0397 0.9992 -0.0000
vn 0.0287 0.7011 0.7125
vn 0.0001 0.0013 1.0000
vn -0.0284 -0.7001 0.7135
vn -0.0400 -0.9992 -0.0002
vn -0.0284 -0.7003 -0.7133
vn 0.0001 0.0016 -1.0000
vn 0.0280 0.7013 -0.7123
vn 0.1039 0.9946 -0.0002
vn 0.0906 0.6951 0.7131
vn 0.0578 0.0001 0.9983
vn 0.0263 -0.7019 0.7118
vn 0.0137 -0.9999 -0.0013
vn 0.0225 -0.7068 -0.7071
vn 0.0553 0.0011 -0.9985
vn 0.0897 0.6985 -0.7100
vn 0.6787 0.7266 0.1070
vn 0.6533 0.4352 0.6195
vn 0.6339 -0.1197 0.7641
vn 0.6081 -0.6394 0.4705
vn 0.6004 -0.7939 -0.0956
vn 0.6156 -0.4927 -0.6150
vn 0.6424 0.0873 -0.7614
vn 0.6618 0.5824 -0.4722
vn -1.0000 -0.0000 0.0000
vn -0.9682 -0.1748 -0.1792
vn -0.9687 -0.2481 0.0000
vn -0.9671 0.0000 -0.2542
vn -0.9682 0.1748 -0.1791
vn -0.9687 0.2481 0.0000
vn -0.9682 0.1748 0.1792
vn -0.9671 -0.0000 0.2542
vn -0.9682 -0.1748 0.1791
vn 0.9994 -0.0357 0.0002
vn 0.0000 -0.0000 1.0000
vn -0.0000 0.0000 -1.0000
vn -0.5363 0.8440 0.0000
vn -0.9260 0.3775 0.0000
vn 0.7251 0.6886 0.0000
vn 1.0000 -0.0000 0.0000
vn -0.0430 -0.9991 0.0000
usemtl torch.jpg
s 1
f 1/1/1 2/2/2 3/3/3
f 2/4/2 4/5/4 3/3/3
f 2/4/2 5/6/5 4/7/4
f 5/8/5 6/9/6 4/7/4
f 5/8/7 7/10/8 6/11/6
f 7/12/8 8/13/9 6/11/6
f 7/12/8 9/14/10 8/15/9
f 9/16/10 10/17/11 8/15/9
f 9/16/10 11/18/12 10/19/11
f 11/20/12 12/21/13 10/19/11
f 11/20/14 13/22/15 12/23/13
f 13/24/15 14/25/16 12/23/13
f 13/24/15 15/26/17 14/27/16
f 15/28/17 16/29/18 14/27/16
f 15/28/17 1/30/1 16/31/18
f 1/1/1 3/32/3 16/31/18
f 3/33/3 4/34/4 17/35/19
f 4/34/4 18/36/20 17/35/19
f 4/34/4 6/37/6 18/36/20
f 6/37/6 19/38/21 18/36/20
f 6/37/6 8/39/9 19/38/21
f 8/39/9 20/40/22 19/38/21
f 8/39/9 10/41/11 20/40/22
f 10/41/11 21/42/23 20/40/22
f 10/41/11 12/43/13 21/42/23
f 12/43/13 22/44/24 21/42/23
f 12/43/13 14/45/16 22/44/24
f 14/45/16 23/46/25 22/44/24
f 14/45/16 16/47/18 23/46/25
f 16/47/18 24/48/26 23/46/25
f 16/47/18 3/33/3 24/48/26
f 3/33/3 17/35/19 24/48/26
f 17/35/19 18/36/20 25/49/27
f 18/36/20 26/50/28 25/49/27
f 18/36/20 19/38/21 26/50/28
f 19/38/21 27/51/29 26/50/28
f 19/38/21 20/40/22 27/51/29
f 20/40/22 28/52/30 27/51/29
f 20/40/22 21/42/23 28/52/30
f 21/42/23 29/53/31 28/52/30
f 21/42/23 22/44/24 29/53/31
f 22/44/24 30/54/32 29/53/31
f 22/44/24 23/46/25 30/54/32
f 23/46/25 31/55/33 30/54/32
f 23/46/25 24/48/26 31/55/33
f 24/48/26 32/56/34 31/55/33
f 24/48/26 17/35/19 32/56/34
f 17/35/19 25/49/27 32/56/34
f 25/49/27 26/50/28 33/57/35
f 26/50/28 34/58/36 33/57/35
f 26/50/28 27/51/29 34/58/36
f 27/51/29 35/59/37 34/58/36
f 27/51/29 28/52/30 35/59/37
f 28/52/30 36/60/38 35/59/37
f 28/52/30 29/53/31 36/60/38
f 29/53/31 37/61/39 36/60/38
f 29/53/31 30/54/32 37/61/40
f 30/54/32 38/62/41 37/61/40
f 30/54/32 31/55/33 38/62/41
f 31/55/33 39/63/42 38/62/41
f 31/55/33 32/56/34 39/63/42
f 32/56/34 40/64/43 39/63/42
f 32/56/34 25/49/27 40/64/43
f 25/49/27 33/57/35 40/64/43
f 41/65/44 2/66/2 1/67/1
f 41/65/44 5/68/45 2/66/2
f 41/65/44 7/69/46 5/68/47
f 41/65/44 9/70/48 7/69/46
f 41/65/44 11/71/49 9/70/48
f 41/65/44 13/72/15 11/71/50
f 41/65/44 15/73/17 13/72/15
f 41/65/44 1/67/1 15/73/17
f 42/74/51 33/75/52 34/76/53
f 42/74/51 34/76/53 35/77/54
f 42/74/51 35/77/54 36/78/55
f 42/74/51 36/78/55 37/79/56
f 42/74/51 37/79/57 38/80/58
f 42/74/51 38/80/58 39/81/54
f 42/74/51 39/81/54 40/82/59
f 42/74/51 40/82/59 33/75/52
f 43/83/60 44/84/61 45/85/62
f 44/84/61 46/86/63 45/85/62
f 44/84/61 47/87/64 46/86/63
f 47/87/64 48/88/65 46/86/63
f 47/87/64 49/89/66 48/88/65
f 49/89/66 50/90/67 48/88/65
f 49/89/66 51/91/68 50/90/67
f 51/91/68 52/92/69 50/90/67
f 51/91/68 53/93/70 52/92/69
f 53/93/70 54/94/71 52/92/69
f 53/93/70 55/95/72 54/94/71
f 55/95/72 56/96/73 54/94/71
f 55/95/72 57/97/74 56/96/73
f 57/97/74 58/98/75 56/96/73
f 57/97/74 43/83/60 58/98/75
f 43/83/60 45/85/62 58/98/75
f 45/85/62 46/86/63 59/99/76
f 46/86/63 60/100/77 59/99/76
f 46/86/63 48/88/65 60/100/77
f 48/88/65 61/101/78 60/100/77
f 48/88/65 50/90/67 61/101/78
f 50/90/67 62/102/79 61/101/78
f 50/90/67 52/92/69 62/102/79
f 52/92/69 63/103/80 62/102/79
f 52/92/69 54/94/71 63/103/80
f 54/94/71 64/104/81 63/103/80
f 54/94/71 56/96/73 64/104/81
f 56/96/73 65/105/82 64/104/81
f 56/96/73 58/98/75 65/105/82
f 58/98/75 66/106/83 65/105/82
f 58/98/75 45/85/62 66/106/83
f 45/85/62 59/99/76 66/106/83
f 59/99/76 60/100/77 67/107/84
f 60/100/77 68/108/85 67/107/84
f 60/100/77 61/101/78 68/108/85
f 61/101/78 69/109/86 68/108/85
f 61/101/78 62/102/79 69/109/86
f 62/102/79 70/110/87 69/109/86
f 62/102/79 63/103/80 70/110/87
f 63/103/80 71/111/88 70/110/87
f 63/103/80 64/104/81 71/111/88
f 64/104/81 72/112/89 71/111/88
f 64/104/81 65/105/82 72/112/89
f 65/105/82 73/113/90 72/112/89
f 65/105/82 66/106/83 73/113/90
f 66/106/83 74/114/91 73/113/90
f 66/106/83 59/99/76 74/114/91
f 59/99/76 67/107/84 74/114/91
f 67/107/84 68/108/85 75/115/92
f 68/108/85 76/116/93 75/115/92
f 68/108/85 69/109/86 76/116/93
f 69/109/86 77/117/94 76/116/93
f 69/109/86 70/110/87 77/117/94
f 70/110/87 78/118/95 77/117/94
f 70/110/87 71/111/88 78/118/95
f 71/111/88 79/119/96 78/118/95
f 71/111/88 72/112/89 79/119/96
f 72/112/89 80/120/97 79/119/96
f 72/112/89 73/113/90 80/120/97
f 73/113/90 81/121/98 80/120/97
f 73/113/90 74/114/91 81/121/98
f 74/114/91 82/122/99 81/121/98
f 74/114/91 67/107/84 82/122/99
f 67/107/84 75/115/92 82/122/99
f 83/123/100 44/124/101 43/125/102
f 83/123/100 47/126/103 44/124/101
f 83/123/100 49/127/104 47/126/103
f 83/123/100 51/128/105 49/127/104
f 83/123/100 53/129/106 51/128/105
f 83/123/100 55/130/107 53/129/106
f 83/123/100 57/131/108 55/130/107
f 83/123/100 43/125/102 57/131/108
f 84/132/109 75/133/92 76/134/93
f 84/132/109 76/134/93 77/135/94
f 84/132/109 77/135/94 78/136/95
f 84/132/109 78/136/95 79/137/96
f 84/132/109 79/137/96 80/138/97
f 84/132/109 80/138/97 81/139/98
f 84/132/109 81/139/98 82/140/99
f 84/132/109 82/140/99 75/133/92
f 85/141/110 86/142/110 87/143/110
f 86/142/110 88/144/110 87/143/110
f 89/145/111 90/146/111 91/147/111
f 90/146/111 92/148/111 91/147/111
f 87/143/112 90/146/113 85/141/113
f 87/143/112 92/148/112 90/146/113
f 91/147/114 86/142/115 89/145/115
f 91/147/114 88/144/114 86/142/115
f 87/143/112 91/147/114 92/148/112
f 87/143/112 88/144/114 91/147/114
f 86/142/116 90/146/116 89/145/116
f 86/142/116 85/141/116 90/146/116
