# Blender v2.80 (sub 75) OBJ File: 'tvflat.obj'
# www.blender.org
mtllib tvflat.mtl
o Group
v 3.359375 0.593750 1.046875
v -0.531250 0.593750 2.281250
v -0.531250 0.593750 -0.218750
v -0.531250 5.859375 2.281251
v 5.781250 5.859375 0.968751
v -0.531250 5.859375 -0.390624
v -0.531250 3.640625 -0.218749
v 3.359375 3.640625 1.046876
v -0.531250 0.593750 -0.218750
v 3.359375 0.593750 1.046875
v -0.531250 5.859375 -0.390624
v 5.781250 5.859375 0.968751
v 3.359375 0.593750 1.265625
v 5.781250 5.859375 1.343751
v 3.359375 0.593750 1.265625
v 3.359375 3.640625 1.265626
v 5.781250 5.859375 1.343751
v -0.531250 0.593750 2.609375
v -0.531250 5.859375 2.203126
v -0.531250 3.640625 2.078125
v -0.531250 0.593750 2.609375
v -0.531250 5.859375 2.203126
v -4.609375 0.593750 1.281250
v -6.843750 5.859375 1.375001
v -4.609375 0.593750 1.281250
v -4.421875 3.750000 1.281251
v -6.843750 5.859375 1.375001
v -4.421875 0.593750 1.000000
v -6.843750 5.859375 1.000001
v -4.421875 3.750000 1.000001
v -4.421875 0.593750 1.000000
v -6.843750 5.859375 1.000001
v -0.531250 0.593750 -0.218750
v -0.531250 3.640625 -0.218749
v -0.531250 5.859375 -0.390624
v 15.250000 -0.000001 3.984375
v 15.250000 0.937501 -3.421875
v 15.250000 0.937499 4.015625
v 15.250000 0.000001 -3.421875
v 15.250000 0.000001 -3.421875
v -15.953125 0.703126 -3.421875
v 15.250000 0.937501 -3.421875
v -15.953125 0.000001 -3.421875
v -15.953125 0.000001 -3.421875
v -16.140625 0.703124 3.921875
v -15.953125 0.703126 -3.421875
v -16.140625 -0.000001 3.906250
v -16.140625 -0.000001 3.906250
v 15.250000 0.937499 4.015625
v -16.140625 0.703124 3.921875
v 15.250000 -0.000001 3.984375
v 15.250000 0.937499 4.015625
v -15.953125 0.703126 -3.421875
v -16.140625 0.703124 3.921875
v 15.250000 0.937501 -3.421875
v -16.140625 -0.000001 3.906250
v 15.250000 0.000001 -3.421875
v 15.250000 -0.000001 3.984375
v -15.953125 0.000001 -3.421875
v 23.234375 5.984375 2.250000
v 19.718750 9.140626 2.250001
v -23.750000 5.859375 2.281252
v 23.421875 29.875000 2.250004
v -23.750000 29.875000 2.281256
v 19.890625 27.187500 2.250005
v -20.593750 9.031249 2.250001
v -18.734375 10.671874 2.203127
v 17.296875 10.671875 2.250002
v 17.484375 25.421875 2.250004
v -20.406250 27.187500 2.281255
v -18.359375 25.546875 2.203129
v -23.750000 5.859375 -0.453123
v 23.234375 5.984375 -0.484375
v -23.750000 5.859375 2.281252
v 23.234375 5.984375 -0.484375
v 23.234375 5.984375 2.250000
v -23.750000 5.859375 2.281252
v 23.234375 5.984375 -0.484375
v 23.421875 29.875000 -0.484371
v 23.234375 5.984375 2.250000
v 23.421875 29.875000 2.250004
v 23.421875 29.875000 -0.484371
v -23.750000 29.875000 -0.453119
v 23.421875 29.875000 2.250004
v -23.750000 29.875000 2.281256
v -23.750000 29.875000 -0.453119
v -23.750000 5.859375 -0.453123
v -23.750000 29.875000 2.281256
v -23.750000 5.859375 2.281252
v 19.718750 9.140626 -0.453125
v 23.234375 5.859375 -0.484375
v 23.234375 5.859375 -0.484375
v -23.750000 5.859375 -0.453123
v 19.718750 9.140626 -0.453125
v 19.890625 27.187500 -0.453122
v 19.718750 9.140626 -0.453125
v 17.484375 25.187500 -2.187496
v 17.296875 9.265625 -1.859373
v -20.593750 9.140624 -0.453122
v -20.593750 9.140624 -0.453122
v -18.546875 9.140624 -1.843749
v -20.406250 27.187500 -0.453120
v -23.750000 29.875000 -0.453119
v -18.359375 25.187500 -2.124996
v -20.406250 27.187500 -0.453120
v 19.890625 27.187500 -0.453122
v 23.421875 29.875000 -0.484371
v 23.234375 5.984375 -0.484375
v -23.750000 29.875000 -0.453119
vt 0.859375 0.562500
vt 0.798828 0.990234
vt 0.984375 0.562500
vt 0.244141 0.917969
vt 0.275391 0.988281
vt 0.220703 0.923828
vt 0.984375 0.789062
vt 0.859375 0.789062
vt 0.984375 0.562500
vt 0.859375 0.562500
vt 0.980469 0.988281
vt 0.859375 0.988281
vt 0.734375 0.562500
vt 0.210938 0.916016
vt 0.734375 0.562500
vt 0.734375 0.789062
vt 0.734375 0.988281
vt 0.613281 0.562500
vt 0.208984 0.929688
vt 0.613281 0.789062
vt 0.613281 0.562500
vt 0.613281 0.988281
vt 0.734375 0.562500
vt 0.210938 0.916016
vt 0.734375 0.562500
vt 0.734375 0.789062
vt 0.734375 0.988281
vt 0.859375 0.562500
vt 0.275391 0.988281
vt 0.859375 0.789062
vt 0.859375 0.562500
vt 0.859375 0.988281
vt 0.984375 0.562500
vt 0.984375 0.789062
vt 0.980469 0.988281
vt 0.451172 0.417969
vt 0.992188 0.556641
vt 0.451172 0.556641
vt 0.992188 0.416016
vt 0.214844 0.408203
vt 0.447266 0.554688
vt 0.214844 0.554688
vt 0.457031 0.410156
vt 0.992188 0.416016
vt 0.451172 0.554688
vt 0.990234 0.554688
vt 0.453125 0.417969
vt 0.455078 0.410156
vt 0.214844 0.554688
vt 0.445312 0.554688
vt 0.214844 0.408203
vt 0.605469 0.556641
vt 0.308594 0.994141
vt 0.306641 0.562500
vt 0.605469 0.994141
vt 0.306641 0.564453
vt 0.605469 0.994141
vt 0.605469 0.558594
vt 0.308594 0.994141
vt 0.992188 0.007812
vt 0.951172 0.056641
vt 0.455078 0.005859
vt 0.996094 0.369141
vt 0.451172 0.367188
vt 0.953125 0.341797
vt 0.490234 0.054688
vt 0.511719 0.082031
vt 0.923828 0.082031
vt 0.925781 0.314453
vt 0.492188 0.341797
vt 0.515625 0.316406
vt 0.990234 0.416016
vt 0.994141 0.560547
vt 0.447266 0.552734
vt 0.455078 0.556641
vt 0.451172 0.416016
vt 0.990234 0.416016
vt 0.292969 0.564453
vt 0.296875 0.886719
vt 0.218750 0.564453
vt 0.222656 0.886719
vt 0.992188 0.556641
vt 0.451172 0.556641
vt 0.992188 0.417969
vt 0.451172 0.416016
vt 0.244141 0.994141
vt 0.244141 0.917969
vt 0.208984 0.994141
vt 0.208984 0.906250
vt 0.021362 0.364693
vt 0.022333 0.577261
vt 0.043883 0.380823
vt 0.441406 0.330078
vt 0.439453 0.044922
vt 0.416016 0.298828
vt 0.414062 0.046875
vt 0.044716 0.563245
vt 0.000000 0.044922
vt 0.021484 0.044922
vt 0.170761 0.561897
vt 0.182058 0.578078
vt 0.023438 0.298828
vt 0.001953 0.330078
vt 0.169928 0.379475
vt 0.181937 0.362414
vt 0.022225 0.364689
vt 0.182058 0.578078
vn 0.0000 -1.0000 -0.0000
vn 0.0000 1.0000 0.0000
vn 0.3091 -0.0370 -0.9503
vn 0.7295 -0.2936 -0.6178
vn 0.3093 0.0000 -0.9509
vn 0.8091 0.0000 -0.5876
vn 0.2574 -0.1654 -0.9520
vn 0.5398 -0.6097 -0.5804
vn 0.7964 0.0512 0.6026
vn 0.6925 -0.3289 0.6421
vn 0.5390 -0.5698 0.6203
vn 0.0030 -0.0383 0.9993
vn 0.0089 0.1718 0.9851
vn 0.0024 -0.0562 0.9984
vn -0.6143 0.0959 0.7832
vn -0.6919 -0.3214 0.6465
vn -0.5251 -0.5864 0.6168
vn -0.6704 -0.2779 -0.6880
vn -0.8605 0.0865 0.5021
vn -0.5997 0.0000 -0.8002
vn -0.9566 0.0310 -0.2899
vn -0.5332 -0.6121 -0.5840
vn -0.2989 0.0000 -0.9543
vn -0.2997 -0.0365 -0.9533
vn -0.2556 -0.1574 -0.9539
vn 1.0000 0.0000 0.0000
vn 0.0000 0.0000 -1.0000
vn -0.9997 0.0004 -0.0256
vn -0.9997 0.0005 -0.0256
vn -0.9997 0.0000 -0.0255
vn -0.9997 0.0006 -0.0256
vn -0.0027 -0.0277 0.9996
vn -0.0028 -0.0222 0.9997
vn -0.0025 -0.0333 0.9994
vn -0.0075 1.0000 -0.0000
vn -0.0075 1.0000 -0.0002
vn 0.0003 0.0003 1.0000
vn -0.0001 0.0047 1.0000
vn 0.0035 0.0035 1.0000
vn 0.0003 -0.0004 1.0000
vn 0.0024 -0.0004 1.0000
vn 0.0002 -0.0074 1.0000
vn 0.0118 0.0057 0.9999
vn 0.0043 0.0052 1.0000
vn -0.0009 -0.0008 1.0000
vn -0.0008 0.0004 1.0000
vn 0.0092 -0.0123 0.9999
vn 0.0121 -0.0095 0.9999
vn 0.0027 -1.0000 0.0000
vn 1.0000 -0.0078 0.0000
vn -1.0000 0.0000 0.0000
vn -0.0048 0.0044 -1.0000
vn -0.0002 0.0030 -1.0000
vn -0.0032 0.0030 -1.0000
vn 0.2149 0.4734 -0.8542
vn 0.4710 -0.4436 -0.7625
vn 0.5878 -0.0056 -0.8090
vn 0.1759 -0.7120 -0.6798
vn 0.5011 -0.0237 -0.8651
vn -0.4134 -0.6955 -0.5877
vn 0.0035 -1.0000 0.0051
vn 0.2206 -0.8829 -0.4146
vn 0.0017 -0.9991 -0.0418
vn -0.5619 -0.0079 -0.8271
vn -0.5182 -0.4341 -0.7369
vn -0.3514 0.3621 -0.8634
vn -0.6287 0.0065 -0.7776
vn -0.0000 0.6414 -0.7672
vn -0.0013 0.6561 -0.7547
vn -0.0046 -0.0027 -1.0000
vn -0.0046 -0.0026 -1.0000
vn -0.0017 -0.0175 -0.9998
vn -0.0015 -0.0181 -0.9998
vn -0.0007 -0.0200 -0.9998
vn 0.2207 -0.4585 -0.8608
vn -0.0048 -0.0053 -1.0000
vn -0.0089 0.0001 -1.0000
vn -0.0007 -0.0108 -0.9999
usemtl tvflat
s 1
f 1/1/1 2/2/1 3/3/1
f 4/4/2 5/5/2 6/6/2
f 7/7/3 8/8/4 9/9/5
f 8/8/4 10/10/6 9/9/5
f 11/11/7 8/8/4 7/7/3
f 12/12/8 8/8/4 11/11/7
f 13/13/1 2/2/1 1/1/1
f 4/4/2 14/14/2 5/5/2
f 8/8/4 15/15/9 10/10/6
f 16/16/10 15/15/9 8/8/4
f 12/12/8 17/17/11 8/8/4
f 17/17/11 16/16/10 8/8/4
f 18/18/1 2/2/1 13/13/1
f 4/4/1 19/19/1 14/14/1
f 16/16/10 20/20/12 15/15/9
f 20/20/12 21/21/13 15/15/9
f 17/17/11 20/20/12 16/16/10
f 22/22/14 20/20/12 17/17/11
f 23/23/1 2/2/1 18/18/1
f 4/4/1 24/24/1 19/19/1
f 20/20/12 25/25/15 21/21/13
f 26/26/16 25/25/15 20/20/12
f 22/22/14 27/27/17 20/20/12
f 27/27/17 26/26/16 20/20/12
f 28/28/1 2/2/1 23/23/1
f 4/4/2 29/29/2 24/24/2
f 26/26/16 30/30/18 25/25/19
f 30/30/18 31/31/20 25/25/21
f 27/27/17 30/30/18 26/26/16
f 32/32/22 30/30/18 27/27/17
f 3/3/1 2/2/1 28/28/1
f 4/4/2 6/6/2 29/29/2
f 30/30/18 33/33/23 31/31/20
f 34/34/24 33/33/23 30/30/18
f 32/32/22 35/35/25 30/30/18
f 35/35/25 34/34/24 30/30/18
f 36/36/26 37/37/26 38/38/26
f 39/39/26 37/37/26 36/36/26
f 40/40/27 41/41/27 42/42/27
f 43/43/27 41/41/27 40/40/27
f 44/44/28 45/45/29 46/46/30
f 47/47/31 45/45/29 44/44/28
f 48/48/32 49/49/32 50/50/33
f 51/51/34 49/49/32 48/48/32
f 52/52/35 53/53/36 54/54/36
f 55/55/35 53/53/36 52/52/35
f 56/56/1 57/57/1 58/58/1
f 59/59/1 57/57/1 56/56/1
f 60/60/37 61/61/38 62/62/39
f 63/63/40 61/61/38 60/60/37
f 64/64/41 65/65/42 63/63/40
f 63/63/40 65/65/42 61/61/38
f 62/62/39 66/66/43 64/64/41
f 66/66/43 62/62/39 61/61/38
f 67/67/44 66/66/43 61/61/38
f 68/68/45 67/67/44 61/61/38
f 69/69/46 68/68/45 61/61/38
f 69/69/46 61/61/38 65/65/42
f 70/70/47 71/71/48 65/65/42
f 64/64/41 70/70/47 65/65/42
f 69/69/46 65/65/42 71/71/48
f 70/70/47 64/64/41 66/66/43
f 71/71/48 70/70/47 66/66/43
f 71/71/48 66/66/43 67/67/44
f 67/67/44 68/68/45 69/69/46
f 71/71/48 67/67/44 69/69/46
f 72/72/49 73/73/49 74/74/49
f 75/75/49 76/76/49 77/77/49
f 78/78/50 79/79/50 80/80/50
f 79/79/50 81/81/50 80/80/50
f 82/82/2 83/83/2 84/84/2
f 83/83/2 85/85/2 84/84/2
f 86/86/51 87/87/51 88/88/51
f 87/87/51 89/89/51 88/88/51
f 92/90/52 93/91/53 94/92/54
f 95/93/55 96/94/56 97/95/57
f 98/96/58 97/95/59 96/94/56
f 99/97/27 94/92/54 93/91/53
f 100/98/60 98/96/58 96/94/56
f 101/99/61 98/96/62 100/98/63
f 102/100/27 99/97/27 103/101/27
f 103/101/27 99/97/27 93/91/53
f 104/102/64 101/99/64 100/98/65
f 105/103/66 104/102/67 100/98/65
f 105/103/66 95/93/55 104/102/68
f 104/102/69 95/93/55 97/95/69
f 103/101/27 106/104/70 102/100/27
f 106/104/71 92/90/52 94/92/54
f 104/102/72 97/95/73 101/99/74
f 98/96/75 101/99/74 97/95/73
f 106/104/70 107/105/76 108/106/77
f 109/107/78 107/105/76 106/104/70
