# Blender v2.80 (sub 75) OBJ File: ''
# www.blender.org
mtllib clipboard.mtl
o clipboard
v -9.281250 0.499994 16.218750
v 9.437500 0.468744 16.281250
v -9.218750 0.500002 -7.296875
v 9.500000 0.484377 -7.359375
v 9.453125 -0.000006 16.281250
v -9.265625 -0.000006 16.218750
v 9.515625 0.015627 -7.359375
v -9.203125 0.000002 -7.296875
v -3.718750 1.343752 -7.328125
v -3.718750 1.828127 -6.515625
v 4.359375 1.406252 -7.265625
v 4.359375 1.890627 -6.453125
v -3.718750 1.234377 -5.734375
v 4.359375 1.296877 -5.671875
v -3.718750 0.515627 -4.781250
v 4.359375 0.578127 -4.718750
v -3.718750 0.484377 -7.125000
v 4.359375 0.484377 -7.062500
v -3.718750 1.015627 -6.593750
v 4.359375 1.078127 -6.531250
v -3.765625 3.203127 -7.890625
v -3.828125 0.593752 -4.859375
v 4.390625 0.656252 -4.796875
v 4.328125 3.156252 -7.843750
vt 0.000000 0.000000
vt 0.999562 0.000000
vt 0.000000 0.902299
vt 0.999562 0.902299
vt 1.000000 0.000000
vt 0.000438 0.000000
vt 1.000000 0.902299
vt 0.000438 0.902299
vt 0.014301 0.954023
vt 0.014301 0.997179
vt 0.545802 0.954023
vt 0.545802 0.997179
vt 0.014301 0.980695
vt 0.545802 0.980695
vt 0.014301 0.927351
vt 0.545802 0.927351
vt 0.014301 0.910867
vt 0.545802 0.910867
vt 0.014301 0.954023
vt 0.545802 0.954023
vt 0.564993 0.999408
vt 0.564993 0.901765
vt 0.871495 0.901765
vt 0.871495 0.999408
vn 0.0017 1.0000 0.0000
vn 0.6960 0.7181 0.0021
vn 0.0012 1.0000 0.0004
vn 0.6956 0.7184 0.0023
vn 0.0000 -1.0000 -0.0007
vn -0.6957 -0.7183 -0.0021
vn 0.0005 -1.0000 -0.0003
vn -0.6957 -0.7184 -0.0018
vn -0.9995 -0.0312 -0.0027
vn 0.9994 0.0333 0.0027
vn -0.0033 -0.0001 -1.0000
vn -0.0033 -0.0001 1.0000
vn 0.0056 0.1658 -0.9862
vn -0.0064 0.9864 -0.1644
vn 0.0015 0.6006 -0.7996
vn -0.0096 0.9617 0.2739
vn -0.0108 0.7970 0.6039
vn -0.0108 0.7977 0.6030
vn -0.0108 0.7984 0.6021
vn 0.0076 -0.9999 0.0133
vn 0.0062 -0.9244 -0.3814
vn 0.0037 -0.9996 0.0266
vn 0.0069 -0.6032 -0.7975
vn -1.0000 0.0000 0.0000
vn 1.0000 0.0000 0.0000
vn -0.0050 0.7656 0.6433
vn -0.0107 0.7579 0.6522
vn 0.0008 0.7731 0.6343
usemtl clipboard
s 1
f 1/1/1 2/2/2 3/3/3
f 2/2/2 4/4/4 3/3/3
f 5/5/5 6/6/6 7/7/7
f 6/6/6 8/8/8 7/7/7
f 3/3/9 6/6/6 1/1/9
f 3/3/9 8/8/8 6/6/6
f 7/7/10 2/2/2 5/5/10
f 7/7/10 4/4/4 2/2/2
f 3/3/11 7/7/11 8/8/11
f 3/3/11 4/4/11 7/7/11
f 2/2/12 6/6/12 5/5/12
f 2/2/12 1/1/12 6/6/12
f 9/9/13 10/10/14 11/11/15
f 10/10/14 12/12/16 11/11/15
f 10/10/14 13/13/17 12/12/16
f 13/13/17 14/14/18 12/12/16
f 13/13/17 15/15/19 14/14/18
f 15/15/19 16/16/19 14/14/18
f 15/15/20 17/17/21 16/16/22
f 17/17/21 18/18/23 16/16/22
f 17/17/21 9/9/13 18/18/23
f 9/9/13 11/11/15 18/18/23
f 19/19/24 10/10/24 9/9/24
f 19/19/24 13/13/24 10/10/24
f 19/19/24 15/15/24 13/13/24
f 19/19/24 17/17/24 15/15/24
f 19/19/24 9/9/24 17/17/24
f 20/20/25 11/11/25 12/12/25
f 20/20/25 12/12/25 14/14/25
f 20/20/25 14/14/25 16/16/25
f 20/20/25 16/16/25 18/18/25
f 20/20/25 18/18/25 11/11/25
f 21/21/26 22/22/27 23/23/26
f 23/23/26 24/24/28 21/21/26
o paper
v -8.109375 0.640621 15.000000
v 8.218750 0.703121 15.062500
v -8.046875 0.640627 -6.156250
v 8.281250 0.703127 -6.093750
v 8.234375 0.218746 15.062500
v -8.093750 0.156246 15.000000
v 8.296875 0.218752 -6.093750
v -8.031250 0.187502 -6.156250
vt 0.000000 0.000000
vt 0.999562 0.000000
vt -0.000000 0.995895
vt 0.999562 0.995895
vt 1.000000 0.000000
vt 0.000438 0.000000
vt 1.000000 0.995895
vt 0.000438 0.995895
vn -0.0038 1.0000 -0.0000
vn 0.6941 0.7198 0.0021
vn 0.6943 0.7197 0.0021
vn 0.0038 -1.0000 0.0000
vn -0.6940 -0.7200 -0.0025
vn 0.0030 -1.0000 -0.0006
vn -0.6942 -0.7198 -0.0031
vn -0.9994 -0.0334 -0.0030
vn -0.9995 -0.0322 -0.0030
vn 0.9995 0.0322 0.0030
vn 0.0038 0.0001 -1.0000
vn -0.0038 -0.0001 1.0000
usemtl paper
s 1
f 25/25/29 26/26/30 27/27/29
f 26/26/30 28/28/31 27/27/29
f 29/29/32 30/30/33 31/31/34
f 30/30/33 32/32/35 31/31/34
f 27/27/36 30/30/33 25/25/37
f 27/27/36 32/32/35 30/30/33
f 31/31/38 26/26/30 29/29/38
f 31/31/38 28/28/31 26/26/30
f 27/27/39 31/31/39 32/32/39
f 27/27/39 28/28/39 31/31/39
f 26/26/40 30/30/40 29/29/40
f 26/26/40 25/25/40 30/30/40
