# Blender v2.80 (sub 75) OBJ File: 'floodlight.obj'
# www.blender.org
mtllib floodlight.mtl
o polls
v -1.937501 33.109379 -13.078119
v -1.718751 33.109375 -10.359369
v -1.937501 35.734379 -13.078119
v -1.718751 35.734375 -10.359369
v 1.124999 33.109375 -10.359369
v 1.171874 33.109379 -13.078119
v 1.124999 35.734375 -10.359369
v 1.171874 35.734379 -13.078119
v -1.937501 35.734379 -13.078119
v 1.171874 33.109379 -13.078119
v -1.937501 33.109379 -13.078119
v 1.171874 35.734379 -13.078119
v 1.124999 35.734375 -10.359369
v -1.718751 33.109375 -10.359369
v 1.124999 33.109375 -10.359369
v -1.718751 35.734375 -10.359369
v -1.937501 35.734379 -13.078119
v 1.124999 35.734375 -10.359369
v 1.171874 35.734379 -13.078119
v -1.718751 35.734375 -10.359369
v -1.718751 33.109375 -10.359369
v 1.171874 33.109379 -13.078119
v 1.124999 33.109375 -10.359369
v -1.937501 33.109379 -13.078119
v 2.281250 0.062502 -11.234375
v 2.375000 0.062498 11.828125
v 2.281250 1.750002 -11.234375
v 2.375000 1.749998 11.828125
v 3.859375 0.062498 11.812500
v 3.765625 0.062502 -11.234375
v 3.859375 1.749998 11.812500
v 3.765625 1.750002 -11.234375
v 2.281250 1.750002 -11.234375
v 3.765625 0.062502 -11.234375
v 2.281250 0.062502 -11.234375
v 3.765625 1.750002 -11.234375
v 3.859375 1.749998 11.812500
v 2.375000 0.062498 11.828125
v 3.859375 0.062498 11.812500
v 2.375000 1.749998 11.828125
v 2.281250 1.750002 -11.234375
v 3.859375 1.749998 11.812500
v 3.765625 1.750002 -11.234375
v 2.375000 1.749998 11.828125
v 2.375000 0.062498 11.828125
v 3.765625 0.062502 -11.234375
v 3.859375 0.062498 11.812500
v 2.281250 0.062502 -11.234375
v -11.406250 0.124998 12.187500
v 12.531250 0.124998 12.187500
v -11.406250 1.812498 12.187500
v 12.531250 1.812498 12.187500
v 12.531250 0.124998 10.265625
v -11.406250 0.124998 10.265625
v 12.531250 1.812498 10.265625
v -11.406250 1.812498 10.265625
v -11.406250 1.812498 12.187500
v -11.406250 0.124998 10.265625
v -11.406250 0.124998 12.187500
v -11.406250 1.812498 10.265625
v 12.531250 1.812498 10.265625
v 12.531250 0.124998 12.187500
v 12.531250 0.124998 10.265625
v 12.531250 1.812498 12.187500
v -11.406250 1.812498 12.187500
v 12.531250 1.812498 10.265625
v -11.406250 1.812498 10.265625
v 12.531250 1.812498 12.187500
v 12.531250 0.124998 12.187500
v -11.406250 0.124998 10.265625
v 12.531250 0.124998 10.265625
v -11.406250 0.124998 12.187500
v 2.546875 0.140625 1.890625
v 0.234374 33.500000 1.656255
v -1.203125 0.140625 1.890625
v -1.171876 33.500000 1.656255
v 0.234374 33.500000 -0.843745
v 2.546875 0.140625 -1.078125
v -1.171876 33.500000 -0.843745
v -1.203125 0.140625 -1.078125
v -1.203125 0.140625 1.890625
v 2.546875 0.140625 -1.078125
v 2.546875 0.140625 1.890625
v -1.203125 0.140625 -1.078125
v -1.171876 33.500000 -0.843745
v 0.234374 33.500000 1.656255
v 0.234374 33.500000 -0.843745
v -1.171876 33.500000 1.656255
v -1.203125 0.140625 1.890625
v -1.171876 33.500000 -0.843745
v -1.203125 0.140625 -1.078125
v -1.171876 33.500000 1.656255
v 0.234374 33.500000 1.656255
v 2.546875 0.140625 -1.078125
v 0.234374 33.500000 -0.843745
v 2.546875 0.140625 1.890625
v -11.359375 0.078127 -10.062500
v 12.562500 0.078127 -10.062500
v -11.359375 1.765627 -10.062500
v 12.562500 1.765627 -10.062500
v 12.562500 0.078127 -11.968750
v -11.359375 0.078127 -11.968750
v 12.562500 1.765627 -11.968750
v -11.359375 1.765627 -11.968750
v -11.359375 1.765627 -10.062500
v -11.359375 0.078127 -11.968750
v -11.359375 0.078127 -10.062500
v -11.359375 1.765627 -11.968750
v 12.562500 1.765627 -11.968750
v 12.562500 0.078127 -10.062500
v 12.562500 0.078127 -11.968750
v 12.562500 1.765627 -10.062500
v -11.359375 1.765627 -10.062500
v 12.562500 1.765627 -11.968750
v -11.359375 1.765627 -11.968750
v 12.562500 1.765627 -10.062500
v 12.562500 0.078127 -10.062500
v -11.359375 0.078127 -11.968750
v 12.562500 0.078127 -11.968750
v -11.359375 0.078127 -10.062500
v -2.750000 0.000002 -11.171875
v -2.640625 -0.000002 11.875000
v -2.750000 1.703127 -11.171875
v -2.640625 1.703123 11.875000
v -1.156250 -0.000002 11.875000
v -1.265625 0.000002 -11.187500
v -1.156250 1.703123 11.875000
v -1.265625 1.703127 -11.187500
v -2.750000 1.703127 -11.171875
v -1.265625 0.000002 -11.187500
v -2.750000 0.000002 -11.171875
v -1.265625 1.703127 -11.187500
v -1.156250 1.703123 11.875000
v -2.640625 -0.000002 11.875000
v -1.156250 -0.000002 11.875000
v -2.640625 1.703123 11.875000
v -2.750000 1.703127 -11.171875
v -1.156250 1.703123 11.875000
v -1.265625 1.703127 -11.187500
v -2.640625 1.703123 11.875000
v -2.640625 -0.000002 11.875000
v -1.265625 0.000002 -11.187500
v -1.156250 -0.000002 11.875000
v -2.750000 0.000002 -11.171875
v -1.203126 33.453125 -11.171869
v -1.109376 33.453121 11.875006
v -1.203126 35.140625 -11.171869
v -1.109376 35.140621 11.875006
v 0.343749 33.453121 11.875006
v 0.249999 33.453125 -11.187494
v 0.343749 35.140621 11.875006
v 0.249999 35.140625 -11.187494
v -1.203126 35.140625 -11.171869
v 0.249999 33.453125 -11.187494
v -1.203126 33.453125 -11.171869
v 0.249999 35.140625 -11.187494
v 0.343749 35.140621 11.875006
v -1.109376 33.453121 11.875006
v 0.343749 33.453121 11.875006
v -1.109376 35.140621 11.875006
v -1.203126 35.140625 -11.171869
v 0.343749 35.140621 11.875006
v 0.249999 35.140625 -11.187494
v -1.109376 35.140621 11.875006
v -1.109376 33.453121 11.875006
v 0.249999 33.453125 -11.187494
v 0.343749 33.453121 11.875006
v -1.203126 33.453125 -11.171869
v -1.968751 33.109375 9.234381
v -1.734376 33.109371 11.953131
v -1.968751 35.734375 9.234381
v -1.734376 35.734371 11.953131
v 1.109374 33.109371 11.953131
v 1.156249 33.109375 9.234381
v 1.109374 35.734371 11.953131
v 1.156249 35.734375 9.234381
v -1.968751 35.734375 9.234381
v 1.156249 33.109375 9.234381
v -1.968751 33.109375 9.234381
v 1.156249 35.734375 9.234381
v 1.109374 35.734371 11.953131
v -1.734376 33.109371 11.953131
v 1.109374 33.109371 11.953131
v -1.734376 35.734371 11.953131
v -1.968751 35.734375 9.234381
v 1.109374 35.734371 11.953131
v 1.156249 35.734375 9.234381
v -1.734376 35.734371 11.953131
v -1.734376 33.109371 11.953131
v 1.156249 33.109375 9.234381
v 1.109374 33.109371 11.953131
v -1.968751 33.109375 9.234381
vt 0.007533 0.011111
vt 0.992467 0.011111
vt 0.007533 0.409726
vt 0.992467 0.409726
vt 0.992467 0.011111
vt 0.007533 0.011111
vt 0.992467 0.409726
vt 0.007533 0.409726
vt 0.005306 0.986852
vt 0.992494 0.800684
vt 0.005306 0.800684
vt 0.992494 0.986852
vt 0.992494 0.986852
vt 0.005306 0.800684
vt 0.992494 0.800684
vt 0.005306 0.986852
vt 0.009625 0.406428
vt 0.986525 0.803134
vt 0.009625 0.803133
vt 0.986525 0.406428
vt 0.986525 0.406428
vt 0.009625 0.803133
vt 0.986525 0.803134
vt 0.009625 0.406428
vt 0.007533 0.011111
vt 0.992467 0.011111
vt 0.007533 0.409726
vt 0.992467 0.409726
vt 0.992467 0.011111
vt 0.007533 0.011111
vt 0.992467 0.409726
vt 0.007533 0.409726
vt 0.005306 0.986852
vt 0.992494 0.800684
vt 0.005306 0.800684
vt 0.992494 0.986852
vt 0.992494 0.986852
vt 0.005306 0.800684
vt 0.992494 0.800684
vt 0.005306 0.986852
vt 0.009625 0.406428
vt 0.986525 0.803134
vt 0.009625 0.803133
vt 0.986525 0.406428
vt 0.986525 0.406428
vt 0.009625 0.803133
vt 0.986525 0.803134
vt 0.009625 0.406428
vt 0.007533 0.011111
vt 0.992467 0.011111
vt 0.007533 0.409726
vt 0.992467 0.409726
vt 0.992467 0.011111
vt 0.007533 0.011111
vt 0.992467 0.409726
vt 0.007533 0.409726
vt 0.005306 0.986852
vt 0.992494 0.800684
vt 0.005306 0.800684
vt 0.992494 0.986852
vt 0.992494 0.986852
vt 0.005306 0.800684
vt 0.992494 0.800684
vt 0.005306 0.986852
vt 0.009625 0.406428
vt 0.986525 0.803134
vt 0.009625 0.803133
vt 0.986525 0.406428
vt 0.986525 0.406428
vt 0.009625 0.803133
vt 0.986525 0.803134
vt 0.009625 0.406428
vt 0.007533 0.011111
vt 0.992467 0.011111
vt 0.007533 0.409726
vt 0.992467 0.409726
vt 0.992467 0.011111
vt 0.007533 0.011111
vt 0.992467 0.409726
vt 0.007533 0.409726
vt 0.005306 0.986852
vt 0.992494 0.800684
vt 0.005306 0.800684
vt 0.992494 0.986852
vt 0.992494 0.986852
vt 0.005306 0.800684
vt 0.992494 0.800684
vt 0.005306 0.986852
vt 0.009625 0.406428
vt 0.986525 0.803134
vt 0.009625 0.803133
vt 0.986525 0.406428
vt 0.986525 0.406428
vt 0.009625 0.803133
vt 0.986525 0.803134
vt 0.009625 0.406428
vt 0.007533 0.011111
vt 0.992467 0.011111
vt 0.007533 0.409726
vt 0.992467 0.409726
vt 0.992467 0.011111
vt 0.007533 0.011111
vt 0.992467 0.409726
vt 0.007533 0.409726
vt 0.005306 0.986852
vt 0.992494 0.800684
vt 0.005306 0.800684
vt 0.992494 0.986852
vt 0.992494 0.986852
vt 0.005306 0.800684
vt 0.992494 0.800684
vt 0.005306 0.986852
vt 0.009625 0.406428
vt 0.986525 0.803134
vt 0.009625 0.803133
vt 0.986525 0.406428
vt 0.986525 0.406428
vt 0.009625 0.803133
vt 0.986525 0.803134
vt 0.009625 0.406428
vt 0.007533 0.011111
vt 0.992467 0.011111
vt 0.007533 0.409726
vt 0.992467 0.409726
vt 0.992467 0.011111
vt 0.007533 0.011111
vt 0.992467 0.409726
vt 0.007533 0.409726
vt 0.005306 0.986852
vt 0.992494 0.800684
vt 0.005306 0.800684
vt 0.992494 0.986852
vt 0.992494 0.986852
vt 0.005306 0.800684
vt 0.992494 0.800684
vt 0.005306 0.986852
vt 0.009625 0.406428
vt 0.986525 0.803134
vt 0.009625 0.803133
vt 0.986525 0.406428
vt 0.986525 0.406428
vt 0.009625 0.803133
vt 0.986525 0.803134
vt 0.009625 0.406428
vt 0.007533 0.011111
vt 0.992467 0.011111
vt 0.007533 0.409726
vt 0.992467 0.409726
vt 0.992467 0.011111
vt 0.007533 0.011111
vt 0.992467 0.409726
vt 0.007533 0.409726
vt 0.005306 0.986852
vt 0.992494 0.800684
vt 0.005306 0.800684
vt 0.992494 0.986852
vt 0.992494 0.986852
vt 0.005306 0.800684
vt 0.992494 0.800684
vt 0.005306 0.986852
vt 0.009625 0.406428
vt 0.986525 0.803134
vt 0.009625 0.803133
vt 0.986525 0.406428
vt 0.986525 0.406428
vt 0.009625 0.803133
vt 0.986525 0.803134
vt 0.009625 0.406428
vt 0.007533 0.011111
vt 0.992467 0.011111
vt 0.007533 0.409726
vt 0.992467 0.409726
vt 0.992467 0.011111
vt 0.007533 0.011111
vt 0.992467 0.409726
vt 0.007533 0.409726
vt 0.005306 0.986852
vt 0.992494 0.800684
vt 0.005306 0.800684
vt 0.992494 0.986852
vt 0.992494 0.986852
vt 0.005306 0.800684
vt 0.992494 0.800684
vt 0.005306 0.986852
vt 0.009625 0.406428
vt 0.986525 0.803134
vt 0.009625 0.803133
vt 0.986525 0.406428
vt 0.986525 0.406428
vt 0.009625 0.803133
vt 0.986525 0.803134
vt 0.009625 0.406428
vn -0.9968 0.0000 0.0802
vn 0.9999 0.0000 0.0172
vn 0.0000 0.0000 -1.0000
vn 0.0000 0.0000 1.0000
vn 0.0000 1.0000 0.0000
vn 0.0000 -1.0000 -0.0000
vn -1.0000 0.0000 0.0041
vn 1.0000 0.0000 -0.0041
vn 0.0105 0.0000 0.9999
vn -1.0000 0.0000 0.0000
vn 1.0000 0.0000 0.0000
vn 0.0000 0.0070 1.0000
vn 0.0000 0.0070 -1.0000
vn -1.0000 0.0009 0.0000
vn 0.9976 0.0692 0.0000
vn -1.0000 0.0000 0.0047
vn 1.0000 0.0000 -0.0047
vn -0.0105 0.0000 -0.9999
vn -0.0108 0.0000 -0.9999
vn -0.9963 0.0000 0.0859
usemtl yellow_poll
s 1
f 1/1/1 2/2/1 3/3/1
f 2/2/1 4/4/1 3/3/1
f 5/5/2 6/6/2 7/7/2
f 6/6/2 8/8/2 7/7/2
f 9/9/3 10/10/3 11/11/3
f 9/9/3 12/12/3 10/10/3
f 13/13/4 14/14/4 15/15/4
f 13/13/4 16/16/4 14/14/4
f 17/17/5 18/18/5 19/19/5
f 17/17/5 20/20/5 18/18/5
f 21/21/6 22/22/6 23/23/6
f 21/21/6 24/24/6 22/22/6
f 25/25/7 26/26/7 27/27/7
f 26/26/7 28/28/7 27/27/7
f 29/29/8 30/30/8 31/31/8
f 30/30/8 32/32/8 31/31/8
f 33/33/3 34/34/3 35/35/3
f 33/33/3 36/36/3 34/34/3
f 37/37/9 38/38/9 39/39/9
f 37/37/9 40/40/9 38/38/9
f 41/41/5 42/42/5 43/43/5
f 41/41/5 44/44/5 42/42/5
f 45/45/6 46/46/6 47/47/6
f 45/45/6 48/48/6 46/46/6
f 49/49/4 50/50/4 51/51/4
f 50/50/4 52/52/4 51/51/4
f 53/53/3 54/54/3 55/55/3
f 54/54/3 56/56/3 55/55/3
f 57/57/10 58/58/10 59/59/10
f 57/57/10 60/60/10 58/58/10
f 61/61/11 62/62/11 63/63/11
f 61/61/11 64/64/11 62/62/11
f 65/65/5 66/66/5 67/67/5
f 65/65/5 68/68/5 66/66/5
f 69/69/6 70/70/6 71/71/6
f 69/69/6 72/72/6 70/70/6
f 73/73/12 74/74/12 75/75/12
f 74/74/12 76/76/12 75/75/12
f 77/77/13 78/78/13 79/79/13
f 78/78/13 80/80/13 79/79/13
f 81/81/6 82/82/6 83/83/6
f 81/81/6 84/84/6 82/82/6
f 85/85/5 86/86/5 87/87/5
f 85/85/5 88/88/5 86/86/5
f 89/89/14 90/90/14 91/91/14
f 89/89/14 92/92/14 90/90/14
f 93/93/15 94/94/15 95/95/15
f 93/93/15 96/96/15 94/94/15
f 97/97/4 98/98/4 99/99/4
f 98/98/4 100/100/4 99/99/4
f 101/101/3 102/102/3 103/103/3
f 102/102/3 104/104/3 103/103/3
f 105/105/10 106/106/10 107/107/10
f 105/105/10 108/108/10 106/106/10
f 109/109/11 110/110/11 111/111/11
f 109/109/11 112/112/11 110/110/11
f 113/113/5 114/114/5 115/115/5
f 113/113/5 116/116/5 114/114/5
f 117/117/6 118/118/6 119/119/6
f 117/117/6 120/120/6 118/118/6
f 121/121/16 122/122/16 123/123/16
f 122/122/16 124/124/16 123/123/16
f 125/125/17 126/126/17 127/127/17
f 126/126/17 128/128/17 127/127/17
f 129/129/18 130/130/18 131/131/18
f 129/129/18 132/132/18 130/130/18
f 133/133/4 134/134/4 135/135/4
f 133/133/4 136/136/4 134/134/4
f 137/137/5 138/138/5 139/139/5
f 137/137/5 140/140/5 138/138/5
f 141/141/6 142/142/6 143/143/6
f 141/141/6 144/144/6 142/142/6
f 145/145/7 146/146/7 147/147/7
f 146/146/7 148/148/7 147/147/7
f 149/149/8 150/150/8 151/151/8
f 150/150/8 152/152/8 151/151/8
f 153/153/19 154/154/19 155/155/19
f 153/153/19 156/156/19 154/154/19
f 157/157/4 158/158/4 159/159/4
f 157/157/4 160/160/4 158/158/4
f 161/161/5 162/162/5 163/163/5
f 161/161/5 164/164/5 162/162/5
f 165/165/6 166/166/6 167/167/6
f 165/165/6 168/168/6 166/166/6
f 169/169/20 170/170/20 171/171/20
f 170/170/20 172/172/20 171/171/20
f 173/173/2 174/174/2 175/175/2
f 174/174/2 176/176/2 175/175/2
f 177/177/3 178/178/3 179/179/3
f 177/177/3 180/180/3 178/178/3
f 181/181/4 182/182/4 183/183/4
f 181/181/4 184/184/4 182/182/4
f 185/185/5 186/186/5 187/187/5
f 185/185/5 188/188/5 186/186/5
f 189/189/6 190/190/6 191/191/6
f 189/189/6 192/192/6 190/190/6
o light
v -9.281251 30.265627 -7.624995
v 0.124999 32.171875 -9.265620
v -9.281251 38.609375 -7.624994
v 0.124999 36.703125 -9.265619
v 0.124999 32.171879 -13.874995
v -9.281251 30.265627 -15.828120
v 0.124999 36.703129 -13.874994
v -9.281252 38.609379 -15.828118
v -9.515625 30.359373 14.750005
v -0.078126 32.249996 12.796881
v -9.515626 38.687496 14.750007
v -0.078126 36.781246 12.796881
v -0.078126 32.250000 8.203131
v -9.515626 30.359373 6.546880
v -0.078126 36.781250 8.203131
v -9.515626 38.687500 6.546881
vt 0.000000 0.000000
vt 0.215308 0.191778
vt 0.000000 1.000000
vt 0.215308 0.808223
vt 0.784692 0.191778
vt 1.000000 0.000000
vt 0.784692 0.808223
vt 1.000000 1.000000
vt 0.000000 0.000000
vt 0.215308 0.191778
vt 0.000000 1.000000
vt 0.215308 0.808223
vt 0.784692 0.191778
vt 1.000000 0.000000
vt 0.784692 0.808223
vt 1.000000 1.000000
vn 0.2576 -0.6815 0.6850
vn 0.7022 -0.5022 0.5048
vn 0.2576 0.6815 0.6850
vn 0.7022 0.5022 0.5047
vn 0.7113 -0.4973 -0.4968
vn 0.2786 -0.6794 -0.6788
vn 0.7113 0.4973 -0.4968
vn 0.2786 0.6794 -0.6788
vn 0.2767 -0.6799 0.6791
vn 0.7105 -0.4979 0.4973
vn 0.2778 0.6796 0.6790
vn 0.7109 0.4975 0.4970
vn 0.7018 -0.5026 -0.5049
vn 0.2568 -0.6819 -0.6849
vn 0.7023 0.5022 -0.5046
vn 0.2579 0.6816 -0.6848
usemtl yellow_poll
s 1
f 193/193/21 194/194/22 195/195/23
f 194/194/22 196/196/24 195/195/23
f 197/197/25 198/198/26 199/199/27
f 198/198/26 200/200/28 199/199/27
f 199/199/27 194/194/22 197/197/25
f 199/199/27 196/196/24 194/194/22
f 195/195/23 199/199/27 200/200/28
f 195/195/23 196/196/24 199/199/27
f 194/194/22 198/198/26 197/197/25
f 194/194/22 193/193/21 198/198/26
f 201/201/29 202/202/30 203/203/31
f 202/202/30 204/204/32 203/203/31
f 205/205/33 206/206/34 207/207/35
f 206/206/34 208/208/36 207/207/35
f 207/207/35 202/202/30 205/205/33
f 207/207/35 204/204/32 202/202/30
f 203/203/31 207/207/35 208/208/36
f 203/203/31 204/204/32 207/207/35
f 202/202/30 206/206/34 205/205/33
f 202/202/30 201/201/29 206/206/34
o glow
v -9.281251 38.609375 -7.624994
v -9.281251 30.265627 -15.828120
v -9.281251 30.265627 -7.624995
v -9.281252 38.609379 -15.828118
v -9.515626 38.687496 14.750007
v -9.515626 30.359373 6.546880
v -9.515625 30.359373 14.750005
v -9.515626 38.687500 6.546881
vt 0.000000 1.000000
vt 1.000000 0.000000
vt 0.000000 0.000000
vt 1.000000 1.000000
vt 0.000000 1.000000
vt 1.000000 0.000000
vt 0.000000 0.000000
vt 1.000000 1.000000
vn -1.0000 -0.0000 0.0000
usemtl glow
s 1
f 209/209/37 210/210/37 211/211/37
f 209/209/37 212/212/37 210/210/37
f 213/213/37 214/214/37 215/215/37
f 213/213/37 216/216/37 214/214/37
o mesh
v -9.265626 38.421875 -8.078118
v -11.093751 36.875000 -9.703119
v -9.187501 30.484377 -8.078120
v -11.046876 31.984377 -9.703120
v -11.093751 36.875004 -13.999994
v -9.265627 38.421879 -15.624993
v -11.046876 31.984377 -13.999995
v -9.187501 30.484377 -15.624995
v -9.500001 38.499996 14.296882
v -11.343751 36.953121 12.671881
v -9.421875 30.578123 14.296880
v -11.296876 32.062496 12.671880
v -11.343751 36.953125 8.375006
v -9.500001 38.500000 6.750006
v -11.296876 32.062500 8.375005
v -9.421876 30.578123 6.750005
vt 0.000000 1.000000
vt 0.215308 0.805174
vt 0.000000 0.000000
vt 0.215308 0.188729
vt 0.784692 0.805174
vt 1.000000 1.000000
vt 0.784692 0.188729
vt 1.000000 0.000000
vt 0.000000 1.000000
vt 0.215308 0.805174
vt 0.000000 0.000000
vt 0.215308 0.188729
vt 0.784692 0.805174
vt 1.000000 1.000000
vt 0.784692 0.188729
vt 1.000000 0.000000
vn -0.7751 0.4488 0.4448
vn -0.9088 0.2944 0.2956
vn -0.7648 -0.4656 0.4452
vn -0.9024 -0.3132 0.2959
vn -0.9089 0.2944 -0.2954
vn -0.7750 0.4488 -0.4448
vn -0.9025 -0.3132 -0.2958
vn -0.7648 -0.4657 -0.4452
vn -0.7725 0.4511 0.4471
vn -0.9078 0.2960 0.2972
vn -0.7605 -0.4701 0.4479
vn -0.9007 -0.3162 0.2978
vn -0.9078 0.2960 -0.2970
vn -0.7724 0.4511 -0.4471
vn -0.9008 -0.3163 -0.2977
vn -0.7604 -0.4702 -0.4479
usemtl mesh
s 1
f 217/217/38 218/218/39 219/219/40
f 218/218/39 220/220/41 219/219/40
f 221/221/42 222/222/43 223/223/44
f 222/222/43 224/224/45 223/223/44
f 223/223/44 218/218/39 221/221/42
f 223/223/44 220/220/41 218/218/39
f 219/219/40 223/223/44 224/224/45
f 219/219/40 220/220/41 223/223/44
f 218/218/39 222/222/43 221/221/42
f 218/218/39 217/217/38 222/222/43
f 225/225/46 226/226/47 227/227/48
f 226/226/47 228/228/49 227/227/48
f 229/229/50 230/230/51 231/231/52
f 230/230/51 232/232/53 231/231/52
f 231/231/52 226/226/47 229/229/50
f 231/231/52 228/228/49 226/226/47
f 227/227/48 231/231/52 232/232/53
f 227/227/48 228/228/49 231/231/52
f 226/226/47 230/230/51 229/229/50
f 226/226/47 225/225/46 230/230/51
